<svg xmlns="http://www.w3.org/2000/svg" viewBox="0 0 100 100" width="50px" height="50px"><path fill="#f1bc19" d="M78 13A1 1 0 1 0 78 15A1 1 0 1 0 78 13Z"/><path fill="#f9dbd2" d="M50 12A38 38 0 1 0 50 88A38 38 0 1 0 50 12Z"/><path fill="#f1bc19" d="M84 12A4 4 0 1 0 84 20A4 4 0 1 0 84 12Z"/><path fill="#ee3e54" d="M14 24A2 2 0 1 0 14 28A2 2 0 1 0 14 24Z"/><path fill="#fbcd59" d="M78 75A2 2 0 1 0 78 79 2 2 0 1 0 78 75zM17 74A4 4 0 1 0 17 82 4 4 0 1 0 17 74z"/><path fill="#ee3e54" d="M24 81A2 2 0 1 0 24 85A2 2 0 1 0 24 81Z"/><path fill="#fff" d="M66.483 76.03399999999999A2.483 2.483 0 1 0 66.483 81 2.483 2.483 0 1 0 66.483 76.03399999999999zM16 47A1 1 0 1 0 16 49 1 1 0 1 0 16 47z"/><path fill="#f1bc19" d="M86 30A1 1 0 1 0 86 32A1 1 0 1 0 86 30Z"/><path fill="#fff" d="M80 64A2 2 0 1 0 80 68A2 2 0 1 0 80 64Z"/><g><path fill="#c0e5e4" d="M60.574,68.138H27.339c-2.554,0-4.644-2.1-4.644-4.667V43.713c0-2.567,2.09-4.667,4.644-4.667 h33.235c2.554,0,4.644,2.1,4.644,4.667v19.759C65.217,66.038,63.127,68.138,60.574,68.138z"/><path fill="#472b29" d="M60.574,68.838H27.34c-2.944,0-5.34-2.407-5.34-5.366v-19.76c0-2.959,2.396-5.366,5.34-5.366 h33.234c2.944,0,5.34,2.407,5.34,5.366v19.76C65.914,66.431,63.518,68.838,60.574,68.838z M27.339,39.747 c-2.177,0-3.947,1.779-3.947,3.966v19.76c0,2.187,1.77,3.966,3.947,3.966h33.234c2.177,0,3.947-1.779,3.947-3.966v-19.76 c0-2.187-1.77-3.966-3.947-3.966L27.339,39.747z"/><path fill="#a8dbdb" d="M24.819,66.33c0.84,0.909,1.423,1.086,2.705,1.086h33.096c1.283,0,1.667,0.011,2.506-0.897 L43.973,48.993L24.819,66.33z"/><path fill="#e0fcf8" d="M63.127,40.701c-0.84-0.802-1.423-0.958-2.705-0.958H27.325c-1.283,0-1.667-0.01-2.506,0.792 L44.43,56L63.127,40.701z"/><path fill="#472b29" d="M44.515,56.832c-0.081,0-0.161-0.026-0.229-0.079L23.761,40.695 c-0.162-0.127-0.191-0.363-0.065-0.526c0.128-0.164,0.362-0.193,0.523-0.065l20.29,15.874L63.686,40.11 c0.158-0.132,0.395-0.109,0.524,0.051c0.131,0.16,0.108,0.396-0.051,0.527L44.752,56.747 C44.684,56.804,44.6,56.832,44.515,56.832z"/><g><path fill="#472b29" d="M24.548 67.264c-.102 0-.204-.042-.278-.125-.138-.154-.124-.392.029-.529l12.719-11.421c.153-.138.389-.125.526.029.137.154.124.392-.029.529L24.797 67.168C24.725 67.233 24.637 67.264 24.548 67.264zM63.365 67.264c-.089 0-.178-.031-.249-.096l-12.719-11.42c-.153-.138-.167-.375-.029-.529.137-.154.374-.167.526-.029l12.719 11.42c.153.138.167.375.029.529C63.571 67.222 63.468 67.264 63.365 67.264z"/></g><g><path fill="#e1e0d8" d="M52.161,34.384c-0.002,2.933,1.799,5.707,4.897,7.54l0,0c0,1.584-0.46,3.338-1.034,4.454 c-0.204,0.396,0.115,0.857,0.556,0.809c2.858-0.315,5.566-1.734,7.005-3.152h1.632c7.211,0,13.056-4.321,13.056-9.651 s-5.846-9.651-13.056-9.651S52.161,29.054,52.161,34.384"/><path fill="#472b29" d="M56.52,47.69c-0.347,0-0.674-0.17-0.872-0.46c-0.219-0.321-0.245-0.735-0.067-1.081 c0.459-0.893,0.921-2.43,0.974-3.946c-3.115-1.934-4.894-4.77-4.892-7.819c0-5.597,6.08-10.15,13.554-10.15 c7.474,0,13.553,4.554,13.553,10.15c0,5.598-6.08,10.151-13.553,10.151h-1.433c-1.457,1.355-4.176,2.821-7.15,3.149 C56.596,47.688,56.558,47.69,56.52,47.69z M65.218,25.233c-6.925,0-12.559,4.104-12.559,9.15l0,0 c-0.002,2.768,1.694,5.358,4.652,7.109c0.151,0.09,0.245,0.254,0.245,0.431c0,1.559-0.428,3.397-1.09,4.684l0.114,0.58 l-0.055-0.497c2.842-0.313,5.419-1.739,6.711-3.013c0.093-0.091,0.218-0.143,0.348-0.143h1.633 c6.924,0,12.558-4.105,12.558-9.151S72.142,25.233,65.218,25.233z M52.161,34.383h0.01H52.161z"/><path fill="#472b29" d="M71.269 30.836h-3.595c-.137 0-.249-.112-.249-.25s.111-.25.249-.25h3.595c.137 0 .249.112.249.25S71.406 30.836 71.269 30.836zM66.076 30.836h-7.59c-.137 0-.249-.112-.249-.25s.111-.25.249-.25h7.59c.137 0 .249.112.249.25S66.213 30.836 66.076 30.836zM72.866 33.245H62.88c-.137 0-.249-.112-.249-.25 0-.138.111-.25.249-.25h9.986c.137 0 .249.112.249.25C73.114 33.133 73.003 33.245 72.866 33.245zM61.282 33.245h-4.793c-.137 0-.249-.112-.249-.25 0-.138.111-.25.249-.25h4.793c.137 0 .249.112.249.25C61.531 33.133 61.419 33.245 61.282 33.245zM68.872 35.654H56.488c-.137 0-.249-.112-.249-.25s.111-.25.249-.25h12.382c.137 0 .249.112.249.25S69.008 35.654 68.872 35.654z"/><g><path fill="#472b29" d="M65.617,38.463h-7.131c-0.137,0-0.249-0.112-0.249-0.25s0.111-0.25,0.249-0.25h7.131 c0.137,0,0.249,0.112,0.249,0.25S65.754,38.463,65.617,38.463z"/></g><g><path fill="#ee3e54" d="M72.429 36.150999999999996A4.98 5.005 0 1 0 72.429 46.161A4.98 5.005 0 1 0 72.429 36.150999999999996Z"/><path fill="#472b29" d="M72.429,46.662c-3.02,0-5.478-2.47-5.478-5.506c0-3.035,2.458-5.505,5.478-5.505 s5.478,2.47,5.478,5.505C77.906,44.192,75.449,46.662,72.429,46.662z M72.429,36.651c-2.472,0-4.483,2.021-4.483,4.505 s2.011,4.506,4.483,4.506c2.472,0,4.483-2.021,4.483-4.506S74.9,36.651,72.429,36.651z"/></g><g><path fill="#fdfcef" d="M71.975,43.295c0-0.123,0.045-0.229,0.134-0.319c0.09-0.09,0.196-0.135,0.32-0.135 c0.124,0,0.231,0.045,0.32,0.135c0.09,0.09,0.134,0.197,0.134,0.322c0,0.127-0.045,0.235-0.134,0.325 c-0.088,0.088-0.194,0.131-0.32,0.131c-0.128,0-0.237-0.044-0.323-0.131C72.02,43.536,71.975,43.426,71.975,43.295z M72.031,42.015l-0.491-3.464c-0.02-0.144,0.091-0.272,0.235-0.272h1.306c0.144,0,0.256,0.129,0.235,0.272l-0.491,3.464 c-0.017,0.118-0.117,0.205-0.235,0.205h-0.326C72.147,42.22,72.048,42.133,72.031,42.015z"/></g></g></g></svg>