<svg xmlns="http://www.w3.org/2000/svg"  viewBox="0 0 64 64" width="64px" height="64px"><polygon fill="#ace3ff" points="7,17 32,3 58,17 32,31"/><polygon fill="#ace3ff" points="6,17 6,47 32,62 32,31"/><polygon fill="#7bbeeb" points="17,23 32,15 47,23 32,31"/><polygon fill="#ace3ff" points="32,62 59,47 59,17 32,31"/><polygon fill="#7bbeeb" points="17,23 17,41 32,49 32,31"/><polygon fill="#7bbeeb" points="32,49 47,41 47,23 32,31"/><polygon fill="#e3f2ff" points="17,41 6,47 6,17 17,23"/><path fill="#8d6c9f" d="M32,32c-0.162,0-0.324-0.039-0.471-0.117l-15-8C16.204,23.709,16,23.369,16,23 s0.204-0.709,0.529-0.883l15-8c0.294-0.156,0.647-0.156,0.941,0l15,8C47.796,22.291,48,22.631,48,23s-0.204,0.709-0.529,0.883 l-15,8C32.324,31.961,32.162,32,32,32z M19.125,23L32,29.866L44.875,23L32,16.134L19.125,23z"/><path fill="#8d6c9f" d="M17,27c-0.552,0-1-0.447-1-1v-2.406L5.521,17.878C5.199,17.702,4.999,17.364,5,16.997 c0.001-0.366,0.203-0.703,0.526-0.878l26-14c0.487-0.262,1.093-0.08,1.354,0.407c0.262,0.485,0.08,1.092-0.406,1.354 L8.099,17.006l9.38,5.116C17.8,22.297,18,22.634,18,23v3C18,26.553,17.552,27,17,27z"/><path fill="#8d6c9f" d="M17,35c-0.552,0-1-0.447-1-1v-4c0-0.553,0.448-1,1-1s1,0.447,1,1v4C18,34.553,17.552,35,17,35z"/><path fill="#8d6c9f" d="M32,50c-0.162,0-0.323-0.039-0.471-0.117l-15-8C16.204,41.709,16,41.369,16,41v-3 c0-0.553,0.448-1,1-1s1,0.447,1,1v2.4l13,6.933V31c0-0.553,0.448-1,1-1s1,0.447,1,1v18c0,0.352-0.184,0.677-0.485,0.857 C32.356,49.952,32.178,50,32,50z"/><polygon fill="#85cbf8" points="59,47 32,61 32,49 47,41"/><path fill="#8d6c9f" d="M32,63c-0.175,0-0.351-0.046-0.507-0.138C31.187,62.683,31,62.354,31,62V49c0-0.553,0.448-1,1-1 s1,0.447,1,1v11.301l25.514-14.175c0.484-0.27,1.092-0.094,1.36,0.389c0.269,0.482,0.094,1.091-0.388,1.359l-27,15 C32.334,62.958,32.167,63,32,63z"/><path fill="#8d6c9f" d="M47,42c-0.552,0-1-0.447-1-1V23c0-0.379,0.214-0.725,0.553-0.895l10.244-5.122L33,4.645V15 c0,0.553-0.448,1-1,1s-1-0.447-1-1V3c0-0.35,0.182-0.673,0.48-0.854c0.298-0.182,0.67-0.194,0.98-0.033l27,14 c0.334,0.173,0.542,0.519,0.54,0.896c-0.003,0.376-0.216,0.719-0.553,0.887L48,23.618V41C48,41.553,47.552,42,47,42z"/><path fill="#8d6c9f" d="M44.139,44.66c-0.357,0-0.703-0.192-0.883-0.529l-0.941-1.765 c-0.261-0.487-0.076-1.093,0.411-1.353c0.49-0.261,1.093-0.075,1.353,0.411l0.941,1.765c0.261,0.487,0.076,1.093-0.411,1.353 C44.458,44.622,44.297,44.66,44.139,44.66z"/><path fill="#8d6c9f" d="M39.972,46.883c-0.357,0-0.703-0.192-0.884-0.529l-0.941-1.766 c-0.26-0.487-0.075-1.094,0.412-1.354c0.489-0.259,1.093-0.074,1.354,0.412l0.941,1.766c0.26,0.487,0.075,1.094-0.412,1.354 C40.291,46.845,40.13,46.883,39.972,46.883z"/><path fill="#8d6c9f" d="M35.805,49.104c-0.357,0-0.703-0.192-0.883-0.529l-0.942-1.765 c-0.26-0.487-0.076-1.093,0.412-1.353c0.49-0.261,1.094-0.075,1.353,0.411l0.941,1.765c0.261,0.487,0.076,1.093-0.411,1.353 C36.124,49.066,35.963,49.104,35.805,49.104z"/><path fill="#8d6c9f" d="M59,48c-0.153,0-0.306-0.035-0.447-0.105l-12-6c-0.494-0.247-0.694-0.848-0.447-1.342 c0.247-0.493,0.847-0.692,1.342-0.447L58,45.382V17c0-0.553,0.448-1,1-1s1,0.447,1,1v30c0,0.347-0.18,0.668-0.474,0.851 C59.365,47.95,59.183,48,59,48z"/><g><path fill="#8d6c9f" d="M6,48c-0.177,0-0.354-0.047-0.51-0.14C5.186,47.68,5,47.353,5,47V17c0-0.553,0.448-1,1-1 s1,0.447,1,1v28.315l9.521-5.193c0.487-0.264,1.093-0.085,1.357,0.399c0.265,0.484,0.086,1.092-0.399,1.356l-11,6 C6.33,47.959,6.165,48,6,48z"/></g><g><path fill="#8d6c9f" d="M31.999,63c-0.169,0-0.341-0.043-0.499-0.134l-26-15C5.022,47.59,4.858,46.979,5.134,46.5 c0.276-0.478,0.887-0.643,1.366-0.366l26,15c0.479,0.276,0.643,0.888,0.367,1.366C32.681,62.82,32.345,63,31.999,63z"/></g></svg>