<svg xmlns="http://www.w3.org/2000/svg" viewBox="0 0 100 100" width="100px" height="100px"><path fill="#c8ede6" d="M87.234,55.551c0.3-0.616,0.566-1.264,0.796-1.943c2.633-7.77-1.349-17.078-9.733-19.325 C77.391,22.9,69.391,15.09,60.356,13.758c-10.341-1.525-19.814,5.044-22.966,15.485c-3.799-1.346-7.501-1.182-10.99,0.857 c-1.583,0.732-3.031,1.812-4.33,3.233c-1.907,2.086-3.147,4.719-3.652,7.495c-0.748,0.118-1.483,0.236-2.176,0.484 c-4.04,1.449-6.589,4.431-7.288,8.923c-0.435,2.797,0.443,5.587,0.933,6.714c1.935,4.455,6.422,6.98,10.981,6.312 c0.227-0.033,0.557,0.069,0.752,0.233c0.241,7.12,3.698,13.417,8.884,17.014c8.321,5.772,19.027,3.994,25.781-3.921 c2.894,2.96,6.338,4.398,10.384,3.876c4.023-0.519,7.147-2.739,9.426-6.349c1.053,0.283,2.051,0.691,3.083,0.804 c4.042,0.442,7.297-1.184,9.732-4.8c0.083-0.124,0.203-0.219,0.306-0.328c0.348-0.798,0.696-1.596,1.044-2.394 c0.155-1.211,0.429-2.423,0.443-3.632C90.742,60.508,89.411,57.54,87.234,55.551z"/><path fill="#fdfcef" d="M32.674,79.423c0,0-11.691,0-11.762,0c-2.7,0-4.888-2.189-4.888-4.889 c0-2.355,1.666-4.321,3.884-4.784c-0.026-0.206-0.043-0.415-0.043-0.628c0-2.796,2.267-5.063,5.063-5.063 c1.651,0,3.113,0.794,4.037,2.017c0.236-3.113,3.017-5.514,6.27-5.116c2.379,0.291,4.346,2.13,4.784,4.486 c0.14,0.756,0.126,1.489-0.014,2.177c0.638-0.687,1.546-1.119,2.557-1.119c1.85,0,3.361,1.441,3.48,3.261 c0.84-0.186,1.754-0.174,2.717,0.188c1.84,0.691,3.15,2.423,3.227,4.387c0.109,2.789-2.12,5.085-4.885,5.085 c-0.21,0-0.948,0-1.118,0H35.832"/><path fill="#472b29" d="M20.912,79.923h11.762c0.276,0,0.5-0.224,0.5-0.5s-0.224-0.5-0.5-0.5H20.912 c-2.42,0-4.389-1.969-4.389-4.389c0-2.066,1.466-3.873,3.486-4.295c0.255-0.053,0.426-0.293,0.394-0.552 c-0.023-0.186-0.039-0.374-0.039-0.565c0-2.517,2.047-4.563,4.562-4.563c1.438,0,2.765,0.663,3.638,1.818 c0.125,0.166,0.338,0.237,0.54,0.178c0.199-0.059,0.342-0.234,0.357-0.441c0.104-1.377,0.779-2.671,1.85-3.549 c1.083-0.888,2.456-1.282,3.86-1.109c2.166,0.266,3.956,1.943,4.353,4.081c0.124,0.667,0.12,1.335-0.013,1.986 c-0.044,0.22,0.062,0.442,0.262,0.544c0.2,0.104,0.443,0.06,0.595-0.104c0.575-0.618,1.353-0.959,2.19-0.959 c1.569,0,2.878,1.228,2.981,2.794c0.01,0.146,0.082,0.279,0.199,0.366c0.117,0.089,0.268,0.12,0.408,0.089 c0.841-0.185,1.637-0.132,2.433,0.167c1.669,0.627,2.835,2.209,2.903,3.938c0.047,1.207-0.387,2.35-1.221,3.218 c-0.835,0.869-1.959,1.348-3.164,1.348H35.828c-0.276,0-0.5,0.224-0.5,0.5s0.224,0.5,0.5,0.5h11.271 c1.479,0,2.858-0.588,3.884-1.654c1.025-1.066,1.558-2.469,1.5-3.95c-0.083-2.126-1.51-4.069-3.55-4.835 c-0.8-0.301-1.626-0.398-2.468-0.299c-0.377-1.822-1.998-3.182-3.905-3.182c-0.684,0-1.354,0.18-1.944,0.51 c0-0.386-0.035-0.772-0.106-1.159c-0.477-2.562-2.621-4.573-5.215-4.891c-1.679-0.205-3.32,0.266-4.616,1.328 c-1.003,0.823-1.716,1.951-2.038,3.193c-1.012-0.916-2.319-1.426-3.714-1.426c-3.067,0-5.562,2.496-5.562,5.563 c0,0.083,0.002,0.166,0.007,0.248c-2.254,0.673-3.848,2.776-3.848,5.164C15.523,77.507,17.94,79.923,20.912,79.923z"/><path fill="#fdfcef" d="M35.507,68.655c1.808-0.119,3.365,1.13,3.476,2.789c0.014,0.206,0.005,0.409-0.025,0.606 c0.349-0.394,0.865-0.661,1.458-0.7c1.085-0.071,2.022,0.645,2.158,1.62c0.197-0.054,0.403-0.09,0.616-0.104 c1.582-0.104,2.944,0.989,3.042,2.441"/><path fill="#472b29" d="M46.231,75.556c0.006,0,0.012,0,0.017-0.001c0.138-0.009,0.242-0.128,0.233-0.266 c-0.107-1.587-1.588-2.789-3.308-2.674c-0.137,0.009-0.273,0.026-0.409,0.053c-0.274-0.968-1.256-1.645-2.366-1.567 c-0.425,0.027-0.823,0.159-1.164,0.382c0-0.019-0.002-0.037-0.003-0.056c-0.12-1.795-1.787-3.16-3.742-3.021 c-0.138,0.009-0.242,0.128-0.233,0.266s0.124,0.255,0.266,0.232c1.651-0.105,3.108,1.037,3.21,2.557 c0.012,0.184,0.004,0.37-0.023,0.553c-0.017,0.109,0.041,0.217,0.141,0.264c0.1,0.047,0.219,0.022,0.293-0.061 c0.323-0.365,0.78-0.584,1.287-0.617c0.951-0.034,1.775,0.556,1.894,1.404c0.01,0.071,0.05,0.135,0.11,0.175 c0.06,0.039,0.133,0.051,0.204,0.032c0.187-0.051,0.377-0.083,0.567-0.097c1.44-0.092,2.687,0.896,2.775,2.209 C45.991,75.455,46.101,75.556,46.231,75.556z"/><path fill="#fdfcef" d="M18.932,70.323c1.699-0.801,3.664-0.234,4.389,1.267c0.09,0.186,0.157,0.379,0.201,0.574"/><path fill="#472b29" d="M23.522,72.414c0.018,0,0.037-0.002,0.056-0.006c0.134-0.031,0.219-0.165,0.188-0.3 c-0.049-0.217-0.123-0.428-0.219-0.627c-0.783-1.621-2.902-2.239-4.721-1.385c-0.125,0.06-0.179,0.208-0.12,0.333 c0.059,0.126,0.209,0.176,0.333,0.12c1.574-0.744,3.394-0.227,4.058,1.149c0.08,0.165,0.141,0.34,0.182,0.521 C23.305,72.336,23.408,72.414,23.522,72.414z"/><path fill="#fff" d="M43.899 24h-10.03c-.276 0-.5-.224-.5-.5s.224-.5.5-.5h10.03c.276 0 .5.224.5.5S44.176 24 43.899 24zM47.28 23.5c0-.276-.224-.5-.5-.5h-1.446c-.276 0-.5.224-.5.5s.224.5.5.5h1.446C47.057 24 47.28 23.776 47.28 23.5zM51.335 23.5c0-.276-.224-.5-.5-.5h-2.546c-.276 0-.5.224-.5.5s.224.5.5.5h2.546C51.112 24 51.335 23.776 51.335 23.5zM51.335 25.5c0-.276-.224-.5-.5-.5h-9.616c-.276 0-.5.224-.5.5s.224.5.5.5h9.616C51.112 26 51.335 25.776 51.335 25.5zM39.987 25.5c0-.276-.224-.5-.5-.5h-.58c-.276 0-.5.224-.5.5s.224.5.5.5h.58C39.763 26 39.987 25.776 39.987 25.5zM37.611 25.5c0-.276-.224-.5-.5-.5h-1.457c-.276 0-.5.224-.5.5s.224.5.5.5h1.457C37.387 26 37.611 25.776 37.611 25.5zM46.746 21.5c0-.276-.224-.5-.5-.5h-5.027c-.276 0-.5.224-.5.5s.224.5.5.5h5.027C46.523 22 46.746 21.776 46.746 21.5zM46.746 19.5c0-.276-.224-.5-.5-.5h-1.257c-.276 0-.5.224-.5.5s.224.5.5.5h1.257C46.523 20 46.746 19.776 46.746 19.5zM43.477 27.5c0-.276-.224-.5-.5-.5h-1.758c-.276 0-.5.224-.5.5s.224.5.5.5h1.758C43.254 28 43.477 27.776 43.477 27.5zM86.744 45h-10.03c-.276 0-.5-.224-.5-.5s.224-.5.5-.5h10.031c.276 0 .5.224.5.5S87.021 45 86.744 45zM90.125 44.5c0-.276-.224-.5-.5-.5h-1.446c-.276 0-.5.224-.5.5s.224.5.5.5h1.446C89.902 45 90.125 44.776 90.125 44.5zM94.18 44.5c0-.276-.224-.5-.5-.5h-2.546c-.276 0-.5.224-.5.5s.224.5.5.5h2.546C93.956 45 94.18 44.776 94.18 44.5zM92.154 40.5c0-.276-.224-.5-.5-.5h-9.616c-.276 0-.5.224-.5.5s.224.5.5.5h9.616C91.93 41 92.154 40.776 92.154 40.5zM80.806 40.5c0-.276-.224-.5-.5-.5h-.58c-.276 0-.5.224-.5.5s.224.5.5.5h.58C80.583 41 80.806 40.776 80.806 40.5zM78.429 40.5c0-.276-.224-.5-.5-.5h-1.456c-.276 0-.5.224-.5.5s.224.5.5.5h1.456C78.206 41 78.429 40.776 78.429 40.5zM89.591 42.5c0-.276-.224-.5-.5-.5h-5.027c-.276 0-.5.224-.5.5s.224.5.5.5h5.027C89.367 43 89.591 42.776 89.591 42.5zM89.591 40.5c0-.276-.224-.5-.5-.5h-1.257c-.276 0-.5.224-.5.5s.224.5.5.5h1.257C89.367 41 89.591 40.776 89.591 40.5zM83.108 42.5c0-.276-.224-.5-.5-.5H80.85c-.276 0-.5.224-.5.5s.224.5.5.5h1.758C82.885 43 83.108 42.776 83.108 42.5z"/><path fill="#fdfcef" d="M79.178,28.287c1.883,0,3.517,0,3.54,0c2.11,0,3.821-1.674,3.821-3.739 c0-1.802-1.302-3.305-3.035-3.66c0.02-0.158,0.034-0.317,0.034-0.48c0-2.139-1.772-3.873-3.957-3.873 c-1.29,0-2.433,0.607-3.155,1.543c-0.185-2.381-2.358-4.218-4.9-3.913c-1.859,0.223-3.397,1.629-3.739,3.431 c-0.11,0.578-0.098,1.139,0.011,1.665c-0.498-0.525-1.208-0.856-1.998-0.856c-1.446,0-2.627,1.102-2.72,2.494 c-0.657-0.142-1.371-0.133-2.123,0.143c-1.438,0.528-2.462,1.853-2.522,3.356c-0.085,2.133,1.657,3.889,3.818,3.889 c0.164,0,0.741,0,0.874,0h7.934 M72.701,28.287h0.36"/><path fill="#472b29" d="M82.718,28.788h-3.54c-0.276,0-0.5-0.224-0.5-0.5s0.224-0.5,0.5-0.5h3.54 c1.831,0,3.321-1.453,3.321-3.239c0-1.524-1.108-2.858-2.636-3.17c-0.256-0.053-0.429-0.294-0.396-0.554 c0.018-0.137,0.03-0.275,0.03-0.417c0-1.86-1.551-3.373-3.457-3.373c-1.092,0-2.098,0.491-2.76,1.349 c-0.126,0.164-0.341,0.231-0.539,0.174c-0.198-0.06-0.339-0.234-0.355-0.44c-0.079-1.02-0.565-1.944-1.369-2.604 c-0.829-0.68-1.885-0.979-2.973-0.853c-1.646,0.197-3.006,1.442-3.307,3.027c-0.094,0.495-0.091,0.99,0.009,1.472 c0.045,0.219-0.06,0.441-0.258,0.545c-0.197,0.102-0.44,0.063-0.594-0.1c-0.428-0.451-1.009-0.7-1.635-0.7 c-1.169,0-2.145,0.891-2.221,2.027c-0.01,0.146-0.082,0.278-0.198,0.366c-0.116,0.087-0.264,0.12-0.406,0.089 c-0.639-0.138-1.243-0.098-1.846,0.125c-1.262,0.463-2.144,1.631-2.195,2.905c-0.035,0.876,0.283,1.709,0.895,2.346 c0.635,0.66,1.496,1.024,2.423,1.024h8.807c0.276,0,0.5,0.224,0.5,0.5s-0.224,0.5-0.5,0.5h-8.807 c-1.185,0-2.331-0.485-3.144-1.331c-0.803-0.836-1.219-1.929-1.173-3.078c0.067-1.675,1.212-3.204,2.849-3.806 c0.61-0.225,1.24-0.304,1.88-0.244c0.344-1.396,1.629-2.424,3.135-2.424c0.493,0,0.977,0.113,1.414,0.323 c0.009-0.242,0.037-0.484,0.083-0.727c0.381-2.009,2.096-3.585,4.17-3.833c1.365-0.167,2.685,0.218,3.726,1.071 c0.748,0.613,1.278,1.409,1.546,2.302c0.791-0.648,1.786-1.007,2.842-1.007c2.458,0,4.457,1.962,4.457,4.373 c0,0.034,0,0.068-0.001,0.103c1.764,0.555,3.003,2.188,3.003,4.038C87.039,26.886,85.101,28.788,82.718,28.788z M73.061,28.788 h-0.36c-0.276,0-0.5-0.224-0.5-0.5s0.224-0.5,0.5-0.5h0.36c0.276,0,0.5,0.224,0.5,0.5S73.337,28.788,73.061,28.788z"/><path fill="#472b29" d="M81.011 22.984c-.018 0-.036-.002-.055-.006-.135-.03-.22-.164-.189-.299.037-.164.094-.325.17-.479.604-1.224 2.272-1.677 3.722-1.007.125.058.18.206.122.331-.058.126-.207.179-.332.122-1.201-.556-2.577-.208-3.063.774-.058.118-.102.242-.13.367C81.229 22.905 81.126 22.984 81.011 22.984zM75.852 28.788h-1.107c-.276 0-.5-.224-.5-.5s.224-.5.5-.5h1.107c.276 0 .5.224.5.5S76.129 28.788 75.852 28.788z"/><path fill="#fdfcee" d="M51.052,55.25h-24.15c-2.902,0-5.277-2.442-5.277-5.426V39.135c0-2.984,2.375-5.426,5.277-5.426H72"/><path fill="#472b29" d="M51.052,55.95h-24.15c-3.295,0-5.977-2.748-5.977-6.126V39.135c0-3.378,2.682-6.127,5.977-6.127H72 c0.387,0,0.7,0.313,0.7,0.7s-0.313,0.7-0.7,0.7H26.902c-2.524,0-4.577,2.12-4.577,4.727v10.689c0,2.605,2.053,4.726,4.577,4.726 h24.15c0.387,0,0.7,0.313,0.7,0.7S51.438,55.95,51.052,55.95z"/><path fill="#8f9eb6" d="M65.717,41.427l16.886,15.76l-8.161,0.703l4.644,10.272l-3.096,1.407l-4.502-10.413l-5.769,5.488 V41.427H65.717z"/><path fill="#472b29" d="M75.99,70.27c-0.085,0-0.171-0.016-0.252-0.047c-0.175-0.067-0.316-0.203-0.391-0.376l-4.104-9.492 l-5.042,4.797c-0.204,0.194-0.502,0.247-0.758,0.137c-0.257-0.11-0.424-0.363-0.424-0.644V41.427c0-0.278,0.165-0.531,0.42-0.642 c0.255-0.111,0.552-0.06,0.756,0.13l16.886,15.76c0.202,0.188,0.274,0.479,0.184,0.74s-0.326,0.445-0.602,0.469l-7.176,0.619 l4.236,9.371c0.159,0.352,0.003,0.766-0.348,0.926l-3.095,1.407C76.188,70.248,76.089,70.27,75.99,70.27z M71.488,58.456 c0.046,0,0.093,0.005,0.14,0.015c0.224,0.045,0.412,0.197,0.503,0.408l4.219,9.758l1.81-0.822l-4.355-9.636 c-0.094-0.207-0.081-0.446,0.034-0.642c0.115-0.196,0.317-0.324,0.544-0.344l6.593-0.569L66.417,43.038l0.001,19.975l4.587-4.363 C71.137,58.524,71.31,58.456,71.488,58.456z"/><g><path fill="none" d="M68.602 49.345L68.745 49.68M65.251 41.516L68.18 48.088"/></g><g><path fill="#1f212b" d="M28.27,40.934v2.848c0.457-0.593,1.019-0.769,1.601-0.769c1.456,0,2.101,0.988,2.101,2.495v2.703 h-1.269v-2.693c0-0.936-0.488-1.331-1.165-1.331c-0.748,0-1.269,0.635-1.269,1.404v2.62H27v-7.279L28.27,40.934L28.27,40.934z"/></g><g><path fill="#1f212b" d="M34.995,41.641v1.456h1.414v1.091h-1.425v2.215c0,0.489,0.271,0.727,0.666,0.727 c0.198,0,0.426-0.063,0.613-0.156l0.353,1.082c-0.364,0.146-0.666,0.208-1.05,0.218c-1.112,0.042-1.841-0.593-1.841-1.872v-2.215 h-0.956v-1.091h0.956v-1.321L34.995,41.641z"/></g><g><path fill="#1f212b" d="M39.101,41.641v1.456h1.414v1.091H39.09v2.215c0,0.489,0.271,0.727,0.666,0.727 c0.198,0,0.426-0.063,0.613-0.156l0.353,1.082c-0.364,0.146-0.666,0.208-1.05,0.218c-1.112,0.042-1.841-0.593-1.841-1.872v-2.215 h-0.956v-1.091h0.956v-1.321L39.101,41.641z"/></g><g><path fill="#1f212b" d="M41.584,50.353v-7.267h1.185l0.083,0.707c0.395-0.572,1.081-0.822,1.664-0.822 c1.58,0,2.631,1.175,2.631,2.683c0,1.498-0.946,2.682-2.589,2.682c-0.541,0-1.341-0.166-1.705-0.727v2.745H41.584z M45.878,45.654 c0-0.801-0.541-1.456-1.456-1.456c-0.915,0-1.456,0.655-1.456,1.456c0,0.8,0.593,1.456,1.456,1.456 C45.285,47.11,45.878,46.455,45.878,45.654z"/></g><g><path fill="#1f212b" d="M49.358,44.542c0,0.967-1.476,0.967-1.476,0C47.882,43.565,49.358,43.565,49.358,44.542z M49.358,47.557c0,0.967-1.476,0.967-1.476,0C47.882,46.58,49.358,46.58,49.358,47.557z"/></g><g><path fill="#1f212b" d="M54.596,40.083l-3.545,9h-1.347l3.534-9H54.596z"/></g><g><path fill="#1f212b" d="M59.324,40.083l-3.545,9h-1.347l3.534-9H59.324z"/></g><g><path fill="#472b29" d="M67.782,47.364c-0.193,0-0.376-0.112-0.458-0.3l-2.188-5c-0.111-0.253,0.004-0.548,0.258-0.658 c0.252-0.108,0.548,0.005,0.658,0.258l2.188,5c0.111,0.253-0.004,0.548-0.258,0.658C67.917,47.351,67.849,47.364,67.782,47.364z"/></g><g><path fill="#472b29" d="M69.657,51.302c-0.19,0-0.372-0.109-0.456-0.294l-0.906-2c-0.114-0.251-0.002-0.548,0.249-0.661 c0.251-0.114,0.548-0.002,0.662,0.249l0.906,2c0.114,0.251,0.002,0.548-0.249,0.661C69.796,51.287,69.726,51.302,69.657,51.302z"/></g></svg>